HIERARCHY
ROOT Hips
{
	OFFSET 0.000000 0.000000 0.000000
	CHANNELS 6 Xposition Yposition Zposition Zrotation Xrotation Yrotation
	JOINT LeftUpLeg
	{
		OFFSET -5.000000 0.000000 0.000000
		CHANNELS 6 Xposition Yposition Zposition Zrotation Xrotation Yrotation
		JOINT LeftLeg
		{
			OFFSET 0.000000 10.000000 0.000000
			CHANNELS 6 Xposition Yposition Zposition Zrotation Xrotation Yrotation
			End Site
			{
				OFFSET 0.000000 10.000000 0.000000
			}
		}
	}
	JOINT RightUpLeg
	{
		OFFSET 5.000000 0.000000 0.000000
		CHANNELS 6 Xposition Yposition Zposition Zrotation Xrotation Yrotation
		JOINT RightLeg
		{
			OFFSET 0.000000 10.000000 0.000000
			CHANNELS 6 Xposition Yposition Zposition Zrotation Xrotation Yrotation
			End Site
			{
				OFFSET 0.000000 10.000000 0.000000
			}
		}
	}
}
MOTION
Frames: 27
Frame Time: 0.041667
0.000000 -20.000000 -0.000003 -0.000000 0.000000 -0.000000 -5.000000 0.000000 0.000000 -0.000000 0.000000 -0.000000 0.000000 10.000000 0.000000 -0.000000 0.000000 -0.000000 5.000000 0.000000 0.000000 -0.000000 0.000000 -0.000000 0.000000 10.000000 0.000000 -0.000000 0.000000 -0.000000 
0.000000 -20.000000 -0.000003 -0.000000 0.000000 -0.000000 -5.000000 0.000000 0.000000 -0.000000 0.000000 -0.000000 0.000000 10.000000 0.000000 -0.000000 0.000000 -0.000000 5.000000 0.000000 0.000000 -0.000000 0.000000 -0.000000 0.000000 10.000000 0.000000 -0.000000 0.000000 -0.000000 
0.100000 -20.000000 -0.000003 -0.000000 0.000000 -0.000000 -5.000000 0.000000 0.000000 -5.000000 -0.000000 0.000001 0.000000 10.000002 0.000000 7.500000 -0.000000 -0.000001 5.000000 0.000000 0.000000 5.000000 -0.000000 -0.000001 -0.000000 10.000002 0.000000 -7.500000 -0.000000 0.000001 
0.200000 -20.000000 -0.000003 -0.000000 0.000000 -0.000000 -5.000000 0.000000 0.000000 -10.000000 -0.000000 0.000001 0.000000 10.000004 0.000000 15.000000 -0.000001 -0.000003 5.000000 0.000000 0.000000 10.000000 -0.000000 -0.000001 0.000000 10.000006 0.000000 -15.000000 -0.000001 0.000003 
0.300000 -20.000000 -0.000003 -0.000000 0.000000 -0.000000 -5.000000 0.000000 0.000000 -14.000000 -0.000001 0.000003 -0.000000 10.000000 0.000000 21.500005 -0.000001 -0.000004 5.000000 0.000000 0.000000 14.000000 -0.000001 -0.000003 -0.000001 10.000000 0.000000 -21.500005 -0.000001 0.000004 
0.400000 -20.000000 -0.000003 -0.000000 0.000000 -0.000000 -5.000000 0.000000 0.000000 -18.000001 -0.000001 0.000003 0.000000 10.000004 0.000000 28.000005 -0.000001 -0.000004 5.000000 0.000000 0.000000 18.000001 -0.000001 -0.000003 -0.000000 10.000004 0.000000 -28.000005 -0.000001 0.000004 
0.500000 -20.000000 -0.000003 -0.000000 0.000000 -0.000000 -5.000000 0.000000 0.000000 -14.000000 -0.000001 0.000003 -0.000000 9.999998 0.000000 21.500005 -0.000001 -0.000004 5.000000 0.000000 0.000000 14.000000 -0.000001 -0.000003 -0.000001 10.000000 0.000000 -21.500005 -0.000001 0.000004 
0.600000 -20.000000 -0.000003 -0.000000 0.000000 -0.000000 -5.000000 0.000000 0.000000 -10.000000 -0.000000 0.000001 -0.000000 10.000004 0.000000 15.000000 -0.000001 -0.000003 5.000000 0.000000 0.000000 10.000000 -0.000000 -0.000001 0.000000 10.000004 0.000000 -15.000000 -0.000001 0.000003 
0.700000 -20.000000 -0.000003 -0.000000 0.000000 -0.000000 -5.000000 0.000000 0.000000 -5.000000 -0.000000 0.000001 0.000000 10.000002 0.000000 7.500000 -0.000000 -0.000001 5.000000 0.000000 0.000000 5.000000 -0.000000 -0.000001 -0.000000 10.000002 0.000000 -7.500000 -0.000000 0.000001 
0.800000 -20.000000 -0.000003 -0.000000 0.000000 -0.000000 -5.000000 0.000000 0.000000 -0.000000 0.000000 -0.000000 0.000000 10.000000 0.000000 -0.000000 0.000000 -0.000000 5.000000 0.000000 0.000000 -0.000000 0.000000 -0.000000 0.000000 10.000000 0.000000 -0.000000 0.000000 -0.000000 
0.900000 -20.000000 -0.000003 -0.000000 0.000000 -0.000000 -5.000000 0.000000 0.000000 5.000000 -0.000000 -0.000001 -0.000001 10.000004 0.000000 -7.500000 -0.000000 0.000001 5.000000 0.000000 0.000000 -5.000000 -0.000000 0.000001 -0.000000 10.000002 0.000000 7.500000 -0.000000 -0.000001 
1.000000 -20.000000 -0.000003 -0.000000 0.000000 -0.000000 -5.000000 0.000000 0.000000 10.000000 -0.000000 -0.000001 -0.000000 10.000004 0.000000 -15.000000 -0.000001 0.000003 5.000000 0.000000 0.000000 -10.000000 -0.000000 0.000001 -0.000000 10.000004 0.000000 15.000000 -0.000001 -0.000003 
1.100000 -20.000000 -0.000003 -0.000000 0.000000 -0.000000 -5.000000 0.000000 0.000000 14.000000 -0.000001 -0.000003 -0.000001 10.000000 0.000000 -21.500005 -0.000001 0.000004 5.000000 0.000000 0.000000 -14.000000 -0.000001 0.000003 -0.000002 10.000000 0.000000 21.500005 -0.000001 -0.000004 
1.200000 -20.000000 -0.000003 -0.000000 0.000000 -0.000000 -5.000000 0.000000 0.000000 18.000001 -0.000001 -0.000003 -0.000000 10.000004 0.000000 -28.000005 -0.000001 0.000004 5.000000 0.000000 0.000000 -18.000001 -0.000001 0.000003 0.000001 10.000004 0.000000 28.000005 -0.000001 -0.000004 
1.300000 -20.000000 -0.000003 -0.000000 0.000000 -0.000000 -5.000000 0.000000 0.000000 14.000000 -0.000001 -0.000003 0.000000 10.000000 0.000000 -21.500005 -0.000001 0.000004 5.000000 0.000000 0.000000 -14.000000 -0.000001 0.000003 0.000001 9.999998 0.000000 21.500005 -0.000001 -0.000004 
1.400000 -20.000000 -0.000003 -0.000000 0.000000 -0.000000 -5.000000 0.000000 0.000000 10.000000 -0.000000 -0.000001 0.000000 10.000004 0.000000 -15.000000 -0.000001 0.000003 5.000000 0.000000 0.000000 -10.000000 -0.000000 0.000001 -0.000000 10.000004 0.000000 15.000000 -0.000001 -0.000003 
1.400000 -20.000000 -0.000003 -0.000000 0.000000 -0.000000 -5.000000 0.000000 0.000000 10.000000 -0.000000 -0.000001 0.000000 10.000004 0.000000 -15.000000 -0.000001 0.000003 5.000000 0.000000 0.000000 -10.000000 -0.000000 0.000001 -0.000000 10.000004 0.000000 15.000000 -0.000001 -0.000003 
1.400000 -20.000000 -0.000003 -0.000000 0.000000 -0.000000 -5.000000 0.000000 0.000000 10.000000 -0.000000 -0.000001 0.000000 10.000004 0.000000 -15.000000 -0.000001 0.000003 5.000000 0.000000 0.000000 -10.000000 -0.000000 0.000001 -0.000000 10.000004 0.000000 15.000000 -0.000001 -0.000003 
1.400000 -20.000000 -0.000003 -0.000000 0.000000 -0.000000 -5.000000 0.000000 0.000000 10.000000 -0.000000 -0.000001 0.000000 10.000004 0.000000 -15.000000 -0.000001 0.000003 5.000000 0.000000 0.000000 -10.000000 -0.000000 0.000001 -0.000000 10.000004 0.000000 15.000000 -0.000001 -0.000003 
1.400000 -20.000000 -0.000003 -0.000000 0.000000 -0.000000 -5.000000 0.000000 0.000000 10.000000 -0.000000 -0.000001 0.000000 10.000004 0.000000 -15.000000 -0.000001 0.000003 5.000000 0.000000 0.000000 -10.000000 -0.000000 0.000001 -0.000000 10.000004 0.000000 15.000000 -0.000001 -0.000003 
1.400000 -20.000000 -0.000003 -0.000000 0.000000 -0.000000 -5.000000 0.000000 0.000000 10.000000 -0.000000 -0.000001 0.000000 10.000004 0.000000 -15.000000 -0.000001 0.000003 5.000000 0.000000 0.000000 -10.000000 -0.000000 0.000001 -0.000000 10.000004 0.000000 15.000000 -0.000001 -0.000003 
1.400000 -20.000000 -0.000003 -0.000000 0.000000 -0.000000 -5.000000 0.000000 0.000000 10.000000 -0.000000 -0.000001 0.000000 10.000004 0.000000 -15.000000 -0.000001 0.000003 5.000000 0.000000 0.000000 -10.000000 -0.000000 0.000001 -0.000000 10.000004 0.000000 15.000000 -0.000001 -0.000003 
1.400000 -20.000000 -0.000003 -0.000000 0.000000 -0.000000 -5.000000 0.000000 0.000000 10.000000 -0.000000 -0.000001 0.000000 10.000004 0.000000 -15.000000 -0.000001 0.000003 5.000000 0.000000 0.000000 -10.000000 -0.000000 0.000001 -0.000000 10.000004 0.000000 15.000000 -0.000001 -0.000003 
1.400000 -20.000000 -0.000003 -0.000000 0.000000 -0.000000 -5.000000 0.000000 0.000000 10.000000 -0.000000 -0.000001 0.000000 10.000004 0.000000 -15.000000 -0.000001 0.000003 5.000000 0.000000 0.000000 -10.000000 -0.000000 0.000001 -0.000000 10.000004 0.000000 15.000000 -0.000001 -0.000003 
1.400000 -20.000000 -0.000003 -0.000000 0.000000 -0.000000 -5.000000 0.000000 0.000000 10.000000 -0.000000 -0.000001 0.000000 10.000004 0.000000 -15.000000 -0.000001 0.000003 5.000000 0.000000 0.000000 -10.000000 -0.000000 0.000001 -0.000000 10.000004 0.000000 15.000000 -0.000001 -0.000003 
1.400000 -20.000000 -0.000003 -0.000000 0.000000 -0.000000 -5.000000 0.000000 0.000000 10.000000 -0.000000 -0.000001 0.000000 10.000004 0.000000 -15.000000 -0.000001 0.000003 5.000000 0.000000 0.000000 -10.000000 -0.000000 0.000001 -0.000000 10.000004 0.000000 15.000000 -0.000001 -0.000003 
1.400000 -20.000000 -0.000003 -0.000000 0.000000 -0.000000 -5.000000 0.000000 0.000000 10.000000 -0.000000 -0.000001 0.000000 10.000004 0.000000 -15.000000 -0.000001 0.000003 5.000000 0.000000 0.000000 -10.000000 -0.000000 0.000001 -0.000000 10.000004 0.000000 15.000000 -0.000001 -0.000003 
